<mxfile host="app.diagrams.net" modified="2024-04-22T13:16:27.304Z" agent="Mozilla/5.0 (Windows NT 10.0; Win64; x64) AppleWebKit/537.36 (KHTML, like Gecko) Chrome/123.0.0.0 Safari/537.36" etag="TRfQZmBdTQi51lGsBcIu" version="24.2.7" type="device">
  <diagram id="C5RBs43oDa-KdzZeNtuy" name="Page-1">
    <mxGraphModel dx="1626" dy="894" grid="1" gridSize="10" guides="1" tooltips="1" connect="1" arrows="1" fold="1" page="1" pageScale="1" pageWidth="827" pageHeight="1169" math="0" shadow="0">
      <root>
        <mxCell id="WIyWlLk6GJQsqaUBKTNV-0" />
        <mxCell id="WIyWlLk6GJQsqaUBKTNV-1" parent="WIyWlLk6GJQsqaUBKTNV-0" />
        <mxCell id="hvVQmBXOiGr9cwI37Ggt-4" style="edgeStyle=orthogonalEdgeStyle;rounded=0;orthogonalLoop=1;jettySize=auto;html=1;" edge="1" parent="WIyWlLk6GJQsqaUBKTNV-1" source="hvVQmBXOiGr9cwI37Ggt-0">
          <mxGeometry relative="1" as="geometry">
            <mxPoint x="414" y="290" as="targetPoint" />
          </mxGeometry>
        </mxCell>
        <mxCell id="hvVQmBXOiGr9cwI37Ggt-0" value="Начало программы" style="ellipse;whiteSpace=wrap;html=1;" vertex="1" parent="WIyWlLk6GJQsqaUBKTNV-1">
          <mxGeometry x="354" y="160" width="120" height="80" as="geometry" />
        </mxCell>
        <mxCell id="hvVQmBXOiGr9cwI37Ggt-22" style="edgeStyle=orthogonalEdgeStyle;rounded=0;orthogonalLoop=1;jettySize=auto;html=1;entryX=0.5;entryY=0;entryDx=0;entryDy=0;" edge="1" parent="WIyWlLk6GJQsqaUBKTNV-1" source="hvVQmBXOiGr9cwI37Ggt-19" target="hvVQmBXOiGr9cwI37Ggt-20">
          <mxGeometry relative="1" as="geometry" />
        </mxCell>
        <mxCell id="hvVQmBXOiGr9cwI37Ggt-19" value="Array1&lt;div&gt;Array2&lt;/div&gt;" style="shape=parallelogram;perimeter=parallelogramPerimeter;whiteSpace=wrap;html=1;fixedSize=1;" vertex="1" parent="WIyWlLk6GJQsqaUBKTNV-1">
          <mxGeometry x="353" y="290" width="120" height="60" as="geometry" />
        </mxCell>
        <mxCell id="hvVQmBXOiGr9cwI37Ggt-24" style="edgeStyle=orthogonalEdgeStyle;rounded=0;orthogonalLoop=1;jettySize=auto;html=1;" edge="1" parent="WIyWlLk6GJQsqaUBKTNV-1" source="hvVQmBXOiGr9cwI37Ggt-20" target="hvVQmBXOiGr9cwI37Ggt-23">
          <mxGeometry relative="1" as="geometry" />
        </mxCell>
        <mxCell id="hvVQmBXOiGr9cwI37Ggt-20" value="&lt;div style=&quot;&quot;&gt;Перебор каждой строки Array1&lt;/div&gt;&lt;div style=&quot;&quot;&gt;i&lt;/div&gt;" style="rounded=0;whiteSpace=wrap;html=1;align=center;" vertex="1" parent="WIyWlLk6GJQsqaUBKTNV-1">
          <mxGeometry x="353" y="400" width="120" height="60" as="geometry" />
        </mxCell>
        <mxCell id="hvVQmBXOiGr9cwI37Ggt-23" value="if len &amp;lt;= 3&lt;div&gt;&lt;br&gt;&lt;/div&gt;" style="rhombus;whiteSpace=wrap;html=1;" vertex="1" parent="WIyWlLk6GJQsqaUBKTNV-1">
          <mxGeometry x="302" y="505" width="222" height="80" as="geometry" />
        </mxCell>
        <mxCell id="hvVQmBXOiGr9cwI37Ggt-27" value="Да" style="text;html=1;align=center;verticalAlign=middle;resizable=0;points=[];autosize=1;strokeColor=none;fillColor=none;" vertex="1" parent="WIyWlLk6GJQsqaUBKTNV-1">
          <mxGeometry x="530" y="510" width="40" height="30" as="geometry" />
        </mxCell>
        <mxCell id="hvVQmBXOiGr9cwI37Ggt-28" value="Нет" style="text;html=1;align=center;verticalAlign=middle;resizable=0;points=[];autosize=1;strokeColor=none;fillColor=none;" vertex="1" parent="WIyWlLk6GJQsqaUBKTNV-1">
          <mxGeometry x="250" y="520" width="40" height="30" as="geometry" />
        </mxCell>
        <mxCell id="hvVQmBXOiGr9cwI37Ggt-48" style="edgeStyle=orthogonalEdgeStyle;rounded=0;orthogonalLoop=1;jettySize=auto;html=1;entryX=1;entryY=0.5;entryDx=0;entryDy=0;" edge="1" parent="WIyWlLk6GJQsqaUBKTNV-1" source="hvVQmBXOiGr9cwI37Ggt-29" target="hvVQmBXOiGr9cwI37Ggt-30">
          <mxGeometry relative="1" as="geometry" />
        </mxCell>
        <mxCell id="hvVQmBXOiGr9cwI37Ggt-29" value="Добавление строки в Array2" style="rounded=0;whiteSpace=wrap;html=1;" vertex="1" parent="WIyWlLk6GJQsqaUBKTNV-1">
          <mxGeometry x="590" y="530" width="140" height="40" as="geometry" />
        </mxCell>
        <mxCell id="hvVQmBXOiGr9cwI37Ggt-46" style="edgeStyle=orthogonalEdgeStyle;rounded=0;orthogonalLoop=1;jettySize=auto;html=1;entryX=0.5;entryY=0;entryDx=0;entryDy=0;" edge="1" parent="WIyWlLk6GJQsqaUBKTNV-1" source="hvVQmBXOiGr9cwI37Ggt-33" target="hvVQmBXOiGr9cwI37Ggt-45">
          <mxGeometry relative="1" as="geometry" />
        </mxCell>
        <mxCell id="hvVQmBXOiGr9cwI37Ggt-33" value="print(Array2)" style="rounded=0;whiteSpace=wrap;html=1;" vertex="1" parent="WIyWlLk6GJQsqaUBKTNV-1">
          <mxGeometry x="360" y="710" width="120" height="60" as="geometry" />
        </mxCell>
        <mxCell id="hvVQmBXOiGr9cwI37Ggt-42" value="" style="endArrow=classic;html=1;rounded=0;exitX=0;exitY=0.5;exitDx=0;exitDy=0;entryX=0;entryY=0.5;entryDx=0;entryDy=0;" edge="1" parent="WIyWlLk6GJQsqaUBKTNV-1" source="hvVQmBXOiGr9cwI37Ggt-23" target="hvVQmBXOiGr9cwI37Ggt-33">
          <mxGeometry width="50" height="50" relative="1" as="geometry">
            <mxPoint x="220" y="650" as="sourcePoint" />
            <mxPoint x="270" y="600" as="targetPoint" />
            <Array as="points">
              <mxPoint x="170" y="545" />
              <mxPoint x="170" y="740" />
            </Array>
          </mxGeometry>
        </mxCell>
        <mxCell id="hvVQmBXOiGr9cwI37Ggt-44" style="edgeStyle=orthogonalEdgeStyle;rounded=0;orthogonalLoop=1;jettySize=auto;html=1;entryX=0;entryY=0.375;entryDx=0;entryDy=0;entryPerimeter=0;" edge="1" parent="WIyWlLk6GJQsqaUBKTNV-1" source="hvVQmBXOiGr9cwI37Ggt-23" target="hvVQmBXOiGr9cwI37Ggt-29">
          <mxGeometry relative="1" as="geometry" />
        </mxCell>
        <mxCell id="hvVQmBXOiGr9cwI37Ggt-45" value="Конец&amp;nbsp;&lt;span style=&quot;background-color: initial;&quot;&gt;программы&lt;/span&gt;" style="ellipse;whiteSpace=wrap;html=1;" vertex="1" parent="WIyWlLk6GJQsqaUBKTNV-1">
          <mxGeometry x="360" y="820" width="120" height="80" as="geometry" />
        </mxCell>
        <mxCell id="hvVQmBXOiGr9cwI37Ggt-50" style="edgeStyle=orthogonalEdgeStyle;rounded=0;orthogonalLoop=1;jettySize=auto;html=1;entryX=1;entryY=0.5;entryDx=0;entryDy=0;" edge="1" parent="WIyWlLk6GJQsqaUBKTNV-1" source="hvVQmBXOiGr9cwI37Ggt-30" target="hvVQmBXOiGr9cwI37Ggt-20">
          <mxGeometry relative="1" as="geometry" />
        </mxCell>
        <mxCell id="hvVQmBXOiGr9cwI37Ggt-30" value="i=i+1" style="rounded=0;whiteSpace=wrap;html=1;" vertex="1" parent="WIyWlLk6GJQsqaUBKTNV-1">
          <mxGeometry x="520" y="415" width="120" height="30" as="geometry" />
        </mxCell>
      </root>
    </mxGraphModel>
  </diagram>
</mxfile>
